<svg xmlns="http://www.w3.org/2000/svg" width="44" height="26" viewBox="0 0 44 26">
    <g fill="none" fill-rule="evenodd">
        <g fill-rule="nonzero">
            <g>
                <path fill="#C8D400" stroke="#000" stroke-width=".5" d="M33.88 1.15l9.794 12.314-9.787 11.186H9.25V1.15h24.63z" transform="translate(-946 -605) translate(946 605.1)"/>
                <path fill="#FFF" stroke="#000" stroke-width=".5" d="M0.25 1.15H9.75V24.65H0.25z" transform="translate(-946 -605) translate(946 605.1)"/>
                <path fill="#000" d="M7.208 9.277c.16 0 .285-.004.376-.012.092-.008.155-.03.19-.064.037-.034.05-.085.04-.154-.01-.068-.034-.16-.073-.278l-1.953-5.6c-.02-.062-.044-.111-.071-.147-.028-.036-.073-.063-.137-.08-.063-.018-.152-.03-.266-.035-.114-.005-.267-.007-.46-.007h-.117c-.113.001-.207.004-.282.007-.101.005-.18.017-.237.035-.057.017-.099.043-.125.078-.026.034-.049.079-.068.134L2.077 8.759c-.04.114-.064.205-.074.274-.01.068.002.121.035.159.032.037.09.06.175.07.085.01.202.015.352.015.14 0 .253-.003.34-.01.086-.006.152-.019.2-.036.047-.018.08-.043.102-.074.021-.03.038-.069.051-.114l.4-1.236h2.374l.425 1.27c.013.042.029.076.048.102.02.026.054.047.103.061.049.015.12.025.212.03.093.005.222.007.388.007zM5.734 6.821H3.942l.893-2.686h.005l.894 2.686zM5.38 22.907c.172 0 .343-.008.514-.024.171-.016.34-.04.508-.073.168-.033.33-.072.486-.117.156-.046.287-.09.393-.132.106-.043.176-.1.21-.174.034-.073.051-.158.051-.256v-2.515c0-.065-.008-.122-.024-.173-.017-.05-.04-.094-.071-.13-.031-.035-.067-.062-.107-.08-.041-.018-.088-.027-.14-.027H5.067c-.03 0-.056.01-.079.027-.022.018-.042.046-.058.083-.016.038-.029.087-.037.149-.008.062-.012.138-.012.23 0 .175.016.3.049.373.032.073.078.11.137.11h1.196v1.465c-.12.065-.25.114-.39.146-.14.033-.282.05-.426.05-.293 0-.56-.048-.803-.143-.242-.094-.45-.234-.622-.42-.173-.185-.307-.415-.403-.69-.096-.275-.144-.594-.144-.955 0-.329.047-.629.141-.9.095-.273.23-.505.406-.7.175-.193.387-.342.634-.448.248-.106.525-.159.83-.159.287 0 .538.03.755.088.216.059.403.122.559.19.156.069.282.132.376.19.094.06.163.089.205.089.03 0 .055-.008.076-.025.02-.016.039-.045.053-.085.015-.04.026-.095.035-.164.008-.068.012-.15.012-.244 0-.163-.01-.286-.03-.369-.019-.083-.05-.147-.095-.192-.044-.046-.12-.1-.232-.162-.11-.061-.25-.12-.417-.173-.168-.054-.364-.1-.588-.137-.225-.037-.474-.056-.748-.056-.498 0-.95.077-1.355.23-.405.153-.75.373-1.037.661-.287.288-.508.638-.664 1.05-.156.412-.235.877-.235 1.394 0 .501.074.95.22 1.345.147.396.358.731.635 1.006s.614.485 1.013.63c.399.145.85.217 1.355.217z" transform="translate(-946 -605) translate(946 605.1)"/>
                <path fill="#000" d="M24.586 19.595c.42 0 .812-.034 1.174-.102.361-.068.683-.153.964-.255.282-.102.52-.21.715-.32.195-.112.326-.203.394-.274.068-.071.118-.135.148-.19.031-.056.056-.122.075-.2.018-.077.032-.17.041-.278.01-.108.014-.24.014-.394 0-.223-.006-.4-.018-.534-.013-.133-.031-.236-.056-.31-.025-.075-.056-.124-.093-.149-.037-.025-.086-.037-.148-.037-.08 0-.193.05-.339.148-.145.1-.33.21-.556.334-.226.124-.497.237-.812.339-.316.102-.69.153-1.123.153-.476 0-.904-.082-1.285-.246-.38-.164-.705-.413-.974-.747s-.476-.759-.621-1.275c-.146-.517-.218-1.128-.218-1.833 0-.643.068-1.221.204-1.734.136-.514.335-.951.598-1.313.263-.362.582-.64.956-.835.374-.195.8-.292 1.275-.292.433 0 .806.054 1.118.162.313.108.582.229.807.362.226.133.41.253.552.362.143.108.26.162.353.162.056 0 .105-.019.148-.056.044-.037.08-.096.112-.176.03-.08.052-.186.065-.315.012-.13.018-.288.018-.474 0-.173-.004-.318-.014-.436-.009-.117-.023-.22-.041-.306-.019-.086-.044-.157-.075-.213-.03-.056-.088-.125-.171-.209-.084-.083-.23-.184-.441-.301-.21-.118-.447-.222-.71-.311-.263-.09-.549-.163-.858-.218-.31-.056-.63-.084-.965-.084-.822 0-1.575.14-2.259.418-.683.278-1.27.686-1.758 1.224-.488.538-.869 1.203-1.14 1.995-.273.792-.41 1.698-.41 2.718 0 1.002.125 1.88.372 2.635.247.755.603 1.384 1.067 1.888.464.504 1.027.883 1.688 1.136.662.254 1.404.38 2.227.38z" opacity=".3" transform="translate(-946 -605) translate(946 605.1)"/>
                <path fill="#FFF" d="M24.086 19.095c.42 0 .812-.034 1.174-.102.361-.068.683-.153.964-.255.282-.102.52-.21.715-.32.195-.112.326-.203.394-.274.068-.071.118-.135.148-.19.031-.056.056-.122.075-.2.018-.077.032-.17.041-.278.01-.108.014-.24.014-.394 0-.223-.006-.4-.018-.534-.013-.133-.031-.236-.056-.31-.025-.075-.056-.124-.093-.149-.037-.025-.086-.037-.148-.037-.08 0-.193.05-.339.148-.145.1-.33.21-.556.334-.226.124-.497.237-.812.339-.316.102-.69.153-1.123.153-.476 0-.904-.082-1.285-.246-.38-.164-.705-.413-.974-.747s-.476-.759-.621-1.275c-.146-.517-.218-1.128-.218-1.833 0-.643.068-1.221.204-1.734.136-.514.335-.951.598-1.313.263-.362.582-.64.956-.835.374-.195.8-.292 1.275-.292.433 0 .806.054 1.118.162.313.108.582.229.807.362.226.133.41.253.552.362.143.108.26.162.353.162.056 0 .105-.019.148-.056.044-.037.08-.096.112-.176.03-.08.052-.186.065-.315.012-.13.018-.288.018-.474 0-.173-.004-.318-.014-.436-.009-.117-.023-.22-.041-.306-.019-.086-.044-.157-.075-.213-.03-.056-.088-.125-.171-.209-.084-.083-.23-.184-.441-.301-.21-.118-.447-.222-.71-.311-.263-.09-.549-.163-.858-.218-.31-.056-.63-.084-.965-.084-.822 0-1.575.14-2.259.418-.683.278-1.27.686-1.758 1.224-.488.538-.869 1.203-1.14 1.995-.273.792-.41 1.698-.41 2.718 0 1.002.125 1.88.372 2.635.247.755.603 1.384 1.067 1.888.464.504 1.027.883 1.688 1.136.662.254 1.404.38 2.227.38z" transform="translate(-946 -605) translate(946 605.1)"/>
                <path fill="#000" d="M3 12.9l2-2 2 2H6v2H4v-2H3z" transform="translate(-946 -605) translate(946 605.1)"/>
            </g>
        </g>
    </g>
</svg>
